<svg width="127" height="208" viewBox="0 0 127 208" fill="none" xmlns="http://www.w3.org/2000/svg">
<rect x="21.1111" width="8.88889" height="207.237" fill="#FFAE11"/>
<path d="M63.2488 98.6349L21.083 122.659L21.1829 170.878L63.4487 195.073L105.615 171.049L105.515 122.83L63.2488 98.6349ZM96.2447 165.659L63.404 184.371L30.5486 165.542L30.4528 128.049L63.253 109.361L96.1084 128.189L96.2447 165.659Z" fill="#FFAE11"/>
<path d="M63.2488 12.0121L21.0829 36.0363L21.1829 84.2554L63.4487 108.45L105.615 84.4262L105.515 36.207L63.2488 12.0121ZM96.2447 79.0367L63.404 97.7478L30.5486 78.9192L30.4528 41.4257L63.253 22.7377L96.1084 41.5663L96.2447 79.0367Z" fill="#FFAE11"/>
<rect x="21.1111" width="8.88889" height="207.237" fill="#FFAE11"/>
</svg>
